# xmcd
#
# Track frame offsets: 
#        182
#        23750
#        38140
#        62102
#        71245
#        83832
#        92640
#        110122
#        122492
#        142337
#        164225
#        179757
#        193667
#        205347
#        224247
#        239345
#
# Disc length: 3384 seconds
#
# Revision: 4
# Processed by: cddbd v1.5.2PL0 Copyright (c) Steve Scherf et al.
# Submitted via: ExactAudioCopyFreeDBPlugin 1.0
#
DISCID=060d3610
DTITLE=Eric Clapton, Jeff Beck and Jimmy Page - Blue Eyed Blues^ Charly 
DTITLE=Blues Masterworks, Vol. 20
DYEAR=1992
DGENRE=Blues
TTITLE0=23 Hours Too Long
TTITLE1=Out on the Water Coast
TTITLE2=Five Long Years
TTITLE3=I Ain't Got You
TTITLE4=Good Morning Little Schoolgirl
TTITLE5=Little Red Rooster [rehearsal]
TTITLE6=Little Red Rooster
TTITLE7=Highway 49
TTITLE8=Wang-Dang-Doodle
TTITLE9=I'm a Man
TTITLE10=The Train Kept a Rolling
TTITLE11=Jeff's Blues
TTITLE12=Steeled Blues
TTITLE13=New York City Blues
TTITLE14=It's a Bloody Life
TTITLE15=I See a Man Downstairs
EXTD=YEAR: 1992
EXTT0=
EXTT1=
EXTT2=
EXTT3=
EXTT4=
EXTT5=
EXTT6=
EXTT7=
EXTT8=
EXTT9=
EXTT10=
EXTT11=
EXTT12=
EXTT13=
EXTT14=
EXTT15=
PLAYORDER=
